<svg xmlns="http://www.w3.org/2000/svg" version="1.1" xmlns:xlink="http://www.w3.org/1999/xlink" xmlns:svgjs="http://svgjs.com/svgjs" width="1920" height="1080" preserveAspectRatio="none" viewBox="0 0 1920 1080"><g mask="url(&quot;#SvgjsMask1011&quot;)" fill="none"><rect width="1920" height="1080" x="0" y="0" fill="#0e2a47"></rect><path d="M973.23 748.33 a80.97 80.97 0 1 0 161.94 0 a80.97 80.97 0 1 0 -161.94 0z" stroke="#037b0b"></path><path d="M1086.09 403.14a61.06 61.06 0 1 0-81.81 90.67z" stroke="#e73635"></path><path d="M1396.44 34.19L1462.45 34.19L1462.45 118.58L1396.44 118.58z" stroke="#d3b714"></path><path d="M413.69 1013.97a89.09 89.09 0 1 0-174.78 34.61z" fill="#d3b714"></path><path d="M969.86 549.44 a31.63 31.63 0 1 0 63.26 0 a31.63 31.63 0 1 0 -63.26 0z" stroke="#e73635"></path><path d="M1131.83 68.57 a42.94 42.94 0 1 0 85.88 0 a42.94 42.94 0 1 0 -85.88 0z" stroke="#037b0b"></path><path d="M1314.53 199.13L1417.15 199.13L1417.15 301.75L1314.53 301.75z" stroke="#d3b714"></path><path d="M474.9 682.02a38.04 38.04 0 1 0-23.12 72.49z" fill="#e73635"></path><path d="M847.42 343.98a94.86 94.86 0 1 0 189.02 16.24z" fill="#e73635"></path><path d="M103.5 382.16L118.64 382.16L118.64 397.3L103.5 397.3z" stroke="#d3b714"></path><path d="M89.19 795.37 a88.84 88.84 0 1 0 177.68 0 a88.84 88.84 0 1 0 -177.68 0z" fill="#037b0b"></path><path d="M1538.64 368.38 a26.95 26.95 0 1 0 53.9 0 a26.95 26.95 0 1 0 -53.9 0z" stroke="#037b0b"></path><path d="M1206.12 560.76L1312.4 560.76L1312.4 578.48L1206.12 578.48z" fill="#e73635"></path><path d="M1487.85 421.86 a78.23 78.23 0 1 0 156.46 0 a78.23 78.23 0 1 0 -156.46 0z" fill="#037b0b"></path><path d="M695.43 724.04a32.11 32.11 0 1 0-27.73 57.93z" fill="#d3b714"></path><path d="M921.81 767.99a103.93 103.93 0 1 0 76.88 193.12z" stroke="#d3b714"></path><path d="M719.65 693.57 a66.56 66.56 0 1 0 133.12 0 a66.56 66.56 0 1 0 -133.12 0z" stroke="#d3b714"></path><path d="M1759.37 1051.51 a21.11 21.11 0 1 0 42.22 0 a21.11 21.11 0 1 0 -42.22 0z" stroke="#d3b714"></path><path d="M1.61 82.9 a1.54 1.54 0 1 0 3.08 0 a1.54 1.54 0 1 0 -3.08 0z" stroke="#e73635"></path><path d="M1077.91 241.3L1181.82 241.3L1181.82 345.21L1077.91 345.21z" stroke="#037b0b"></path><path d="M334.86 938.64L338.58 938.64L338.58 942.36L334.86 942.36z" stroke="#d3b714"></path><path d="M496.55 1036.13L497.64 1036.13L497.64 1075.77L496.55 1075.77z" fill="#d3b714"></path><path d="M455.78 631.18L488.15 631.18L488.15 663.55L455.78 663.55z" fill="#e73635"></path></g><defs><mask id="SvgjsMask1011"><rect width="1920" height="1080" fill="#ffffff"></rect></mask></defs></svg>